<svg id="visual" viewBox="0 0 900 600" width="900" height="600" xmlns="http://www.w3.org/2000/svg" xmlns:xlink="http://www.w3.org/1999/xlink" version="1.1"><path d="M0 193L113 205L225 235L338 199L450 187L563 163L675 187L788 151L900 157L900 0L788 0L675 0L563 0L450 0L338 0L225 0L113 0L0 0Z" fill="#0066ff"></path><path d="M0 319L113 295L225 313L338 295L450 271L563 277L675 325L788 247L900 271L900 155L788 149L675 185L563 161L450 185L338 197L225 233L113 203L0 191Z" fill="#007aff"></path><path d="M0 493L113 451L225 457L338 457L450 421L563 445L675 445L788 427L900 439L900 269L788 245L675 323L563 275L450 269L338 293L225 311L113 293L0 317Z" fill="#008cff"></path><path d="M0 541L113 511L225 547L338 511L450 505L563 505L675 511L788 505L900 523L900 437L788 425L675 443L563 443L450 419L338 455L225 455L113 449L0 491Z" fill="#2b9dfc"></path><path d="M0 601L113 601L225 601L338 601L450 601L563 601L675 601L788 601L900 601L900 521L788 503L675 509L563 503L450 503L338 509L225 545L113 509L0 539Z" fill="#4facf7"></path></svg>