<svg id="visual" viewBox="0 0 960 540" width="960" height="540" xmlns="http://www.w3.org/2000/svg" xmlns:xlink="http://www.w3.org/1999/xlink" version="1.1"><path d="M0 174L120 185L240 212L360 179L480 168L600 147L720 168L840 136L960 141L960 0L840 0L720 0L600 0L480 0L360 0L240 0L120 0L0 0Z" fill="#0066ff"></path><path d="M0 287L120 266L240 282L360 266L480 244L600 249L720 293L840 222L960 244L960 139L840 134L720 166L600 145L480 166L360 177L240 210L120 183L0 172Z" fill="#007aff"></path><path d="M0 444L120 406L240 411L360 411L480 379L600 401L720 401L840 384L960 395L960 242L840 220L720 291L600 247L480 242L360 264L240 280L120 264L0 285Z" fill="#008cff"></path><path d="M0 487L120 460L240 492L360 460L480 455L600 455L720 460L840 455L960 471L960 393L840 382L720 399L600 399L480 377L360 409L240 409L120 404L0 442Z" fill="#2b9dfc"></path><path d="M0 541L120 541L240 541L360 541L480 541L600 541L720 541L840 541L960 541L960 469L840 453L720 458L600 453L480 453L360 458L240 490L120 458L0 485Z" fill="#4facf7"></path></svg>